<?xml version="1.0" encoding="utf-8"?>
<!-- Generator: Adobe Illustrator 16.0.0, SVG Export Plug-In . SVG Version: 6.00 Build 0)  -->
<!DOCTYPE svg PUBLIC "-//W3C//DTD SVG 1.1//EN" "http://www.w3.org/Graphics/SVG/1.1/DTD/svg11.dtd">
<svg version="1.1" id="Layer_1" xmlns="http://www.w3.org/2000/svg" xmlns:xlink="http://www.w3.org/1999/xlink" x="0px" y="0px"
	 width="82.475px" height="82.477px" viewBox="0 0 82.475 82.477" enable-background="new 0 0 82.475 82.477" xml:space="preserve">
<g>
	<path fill="#3295B8" d="M82.476,72.476c0,5.5-4.5,10-10,10H10c-5.5,0-10-4.5-10-10V10C0,4.5,4.5,0,10,0h62.476c5.5,0,10,4.5,10,10
		V72.476z"/>
</g>
<g>
	<g>
		<path fill="#FFFFFF" d="M19.809,43.513c-9.188-5.561-1.293-13.412,4.685-17.679c8.397-5.994,18.672-10.207,28.819-12.009
			c3.42-0.607,7.74-1.125,10.965,0.517c3.489,1.776,1.754,6.244,0.413,8.865c-3.336,6.526-8.669,11.224-14.549,15.422
			c-3.072,2.194-8.201,5.85-12.237,5.186c-5.834-0.96,0.04-8.588,1.958-10.401c-2.221-0.92-4.441-1.84-6.663-2.76
			c-0.214,11.167-6.093,21.604-5.701,32.895c0.209,6.06,3.46,12.246,9.87,13.517c7.877,1.561,15.644-4.242,19.223-10.869
			c0.787-1.458-0.182-3.43-1.943-3.386c-3.189,0.079-6.093,0.662-9.245,1.03c-1.289,0.151-1.043,0.117-3.093-0.113
			c-1.51-0.17-1.327-0.132-0.54,0.207c-1.717-0.739,0.138,0.427-0.604-0.295c1.263,1.229-0.336-0.635-0.641-1.202
			c0.649,1.215-0.401-1.375-0.528-1.879c-0.274-1.092-0.365-1.813-0.45-2.606c-0.984-9.211,1.374-18.155,1.46-27.298
			c0.033-3.464-4.247-5.089-6.664-2.76c-5.796,5.586-10.593,17.271-1.177,22.016c7.555,3.807,17.381-5.53,22.506-9.96
			c5.181-4.479,9.593-9.681,12.192-16.091c1.261-3.106,2.331-7.061,0.129-10.016c-4.684-6.281-16.792-2.458-22.66-0.578
			c-9.71,3.107-20.064,8.061-27.152,15.567c-4.974,5.268-5.816,11.716,1.124,15.545C19.87,44.688,20.361,43.847,19.809,43.513
			L19.809,43.513z"/>
	</g>
</g>
</svg>
