<?xml version="1.0" encoding="utf-8"?>
<!-- Generator: Adobe Illustrator 16.0.0, SVG Export Plug-In . SVG Version: 6.00 Build 0)  -->
<!DOCTYPE svg PUBLIC "-//W3C//DTD SVG 1.1//EN" "http://www.w3.org/Graphics/SVG/1.1/DTD/svg11.dtd">
<svg version="1.1" id="Layer_1" xmlns="http://www.w3.org/2000/svg" xmlns:xlink="http://www.w3.org/1999/xlink" x="0px" y="0px"
	 width="148.652px" height="82.477px" viewBox="0 0 148.652 82.477" enable-background="new 0 0 148.652 82.477"
	 xml:space="preserve">
<g>
	<path fill="#3295B8" d="M82.476,72.476c0,5.5-4.5,10-10,10H10c-5.5,0-10-4.5-10-10V10C0,4.5,4.5,0,10,0h62.477c5.5,0,10,4.5,10,10
		V72.476z"/>
</g>
<g>
	<g>
		<path fill="#FFFFFF" d="M19.809,43.513c-9.188-5.561-1.293-13.412,4.684-17.679c8.398-5.994,18.672-10.207,28.82-12.009
			c3.42-0.608,7.74-1.125,10.965,0.517c3.489,1.776,1.753,6.244,0.413,8.865c-3.336,6.526-8.669,11.224-14.549,15.422
			c-3.072,2.194-8.201,5.85-12.237,5.186c-5.834-0.96,0.04-8.588,1.958-10.401c-2.221-0.92-4.442-1.84-6.664-2.76
			c-0.213,11.167-6.092,21.604-5.701,32.895c0.209,6.06,3.46,12.246,9.87,13.517c7.877,1.561,15.645-4.242,19.223-10.869
			c0.787-1.458-0.182-3.43-1.942-3.386c-3.19,0.079-6.093,0.662-9.245,1.03c-1.289,0.151-1.043,0.117-3.093-0.113
			c-1.511-0.17-1.327-0.132-0.54,0.207c-1.717-0.739,0.137,0.427-0.605-0.295c1.264,1.229-0.336-0.635-0.64-1.202
			c0.648,1.215-0.402-1.375-0.529-1.879c-0.273-1.092-0.365-1.813-0.45-2.606c-0.983-9.211,1.374-18.155,1.46-27.298
			c0.033-3.464-4.247-5.089-6.664-2.76c-5.796,5.586-10.593,17.271-1.177,22.016c7.556,3.807,17.381-5.53,22.506-9.96
			c5.182-4.479,9.594-9.681,12.193-16.09c1.26-3.107,2.331-7.062,0.128-10.017c-4.683-6.281-16.792-2.458-22.66-0.578
			c-9.71,3.107-20.063,8.061-27.151,15.567c-4.975,5.268-5.816,11.716,1.124,15.545C19.87,44.688,20.361,43.847,19.809,43.513
			L19.809,43.513z"/>
	</g>
</g>
<g>
	<g>
		<path fill="#FFFFFF" d="M59.459,62.082c1.855,0.574,3.772-1.033,5.331-1.88c2.854-1.55,5.511-3.335,8.151-5.224
			c5.025-3.598,10.476-7.707,13.475-13.248c1.678-3.102-1.052-5.884-4.178-5.436c-8.546,1.229-16.833,8.264-21.957,14.85
			c-4.763,6.121-6.188,15.507,3.61,17.147c9.375,1.57,17.821-4.205,24.691-9.913c5.096-4.232,12.866-13.814,6.35-20.071
			c-0.715,1.226-1.428,2.451-2.142,3.678c12.468,2.034-5.24,17.217,3.545,22.931c1.301,0.847,3.37-0.572,2.754-2.118
			c-1.646-4.131,2.734-11.066,3.151-15.36c0.591-6.09-3.162-9.072-8.866-9.774c-1.922-0.237-2.895,2.558-1.556,3.757
			c5.106,4.575-5.215,11.229-8.551,13.532c-4.826,3.332-10.42,6.555-16.43,6.175c-0.879-0.055-2.239-0.237-2.938-0.847
			c0.4,0.349,0.066,0.177,0.344-0.765c0.697-2.376,2.937-4.507,4.606-6.216c3.975-4.064,9.656-8.674,15.354-9.867
			c-1.393-1.813-2.785-3.623-4.178-5.436c-2.428,5.268-7.418,9.201-11.813,12.791c-2.613,2.136-9.764,5.831-10.129,9.491
			C58.002,61.113,58.721,61.854,59.459,62.082L59.459,62.082z"/>
	</g>
</g>
<g>
	<g>
		<path fill="#FFFFFF" d="M113.359,39.607c-2.93,4.312-20.73,27.077-7.243,29.102c4.859,0.729,8.909-3.959,11.698-7.268
			c3.648-4.328,6.91-9.217,9.432-14.29c-1.628-0.688-3.256-1.373-4.884-2.06c-1.521,5.265-3.754,10.06-3.516,15.648
			c0.082,1.912,1.938,3.667,3.93,2.994c7.283-2.462,11.817-9.032,18.546-12.467c-1.438-0.826-2.877-1.651-4.315-2.478
			c0.011,4.426-1.556,9.437,0.204,13.681c1.799,4.339,7.058,5.697,10.795,3.137c0.808-0.553,0.885-1.729,0-2.268
			c-2.552-1.549-3.945-2.322-4.833-5.274c-0.889-2.959-0.521-6.244-0.431-9.275c0.071-2.337-2.448-3.354-4.315-2.477
			c-6.585,3.096-11.326,8.848-18.043,11.745c1.558,0.894,3.114,1.788,4.673,2.681c-0.626-5.032,0.959-9.5,2.459-14.227
			c0.917-2.89-3.466-4.735-4.885-2.06c-1.74,3.283-3.849,6.368-6.046,9.359c-2.204,3.001-5.218,7.288-8.79,8.776
			c-3.16,1.318,1.496-10.552,1.964-11.493c1.568-3.149,5.081-7.649,4.399-11.386C114.085,39.308,113.552,39.324,113.359,39.607
			L113.359,39.607z"/>
	</g>
</g>
</svg>
